<?xml version="1.0" encoding="UTF-8" standalone="no"?>
<!-- Generator: Adobe Illustrator 15.1.0, SVG Export Plug-In . SVG Version: 6.00 Build 0)  -->

<svg
   version="1.1"
   x="0px"
   y="0px"
   width="770"
   height="750"
   viewBox="0 0 770 750"
   enable-background="new 0 0 622 452"
   xml:space="preserve"
   id="svg4593"
   inkscape:version="1.1.2 (0a00cf5339, 2022-02-04)"
   sodipodi:docname="github-collaboration.svg"
   xmlns:inkscape="http://www.inkscape.org/namespaces/inkscape"
   xmlns:sodipodi="http://sodipodi.sourceforge.net/DTD/sodipodi-0.dtd"
   xmlns:xlink="http://www.w3.org/1999/xlink"
   xmlns="http://www.w3.org/2000/svg"
   xmlns:svg="http://www.w3.org/2000/svg"
   xmlns:rdf="http://www.w3.org/1999/02/22-rdf-syntax-ns#"
   xmlns:cc="http://creativecommons.org/ns#"
   xmlns:dc="http://purl.org/dc/elements/1.1/"><metadata
   id="metadata4778"><rdf:RDF><cc:Work
       rdf:about=""><dc:format>image/svg+xml</dc:format><dc:type
         rdf:resource="http://purl.org/dc/dcmitype/StillImage" /></cc:Work></rdf:RDF></metadata><defs
   id="defs4776"><linearGradient
   y2="363.47269"
   x2="480.35739"
   y1="334.8721"
   x1="480.35739"
   gradientUnits="userSpaceOnUse"
   id="SVGID_1_"
   gradientTransform="translate(279.43586,-47.971822)"><stop
     id="stop4613"
     style="stop-color:#C4C4C4"
     offset="0.0982" /><stop
     id="stop4615"
     style="stop-color:#686868"
     offset="0.5326" /><stop
     id="stop4617"
     style="stop-color:#000000"
     offset="1" /></linearGradient><linearGradient
   inkscape:collect="always"
   xlink:href="#SVGID_3_"
   id="linearGradient5073"
   gradientUnits="userSpaceOnUse"
   x1="537.17682"
   y1="57.660198"
   x2="537.17682"
   y2="112.9126"
   gradientTransform="translate(-4.5202309,241)" /><linearGradient
   inkscape:collect="always"
   xlink:href="#SVGID_3_"
   id="linearGradient5457"
   gradientUnits="userSpaceOnUse"
   x1="537.17682"
   y1="57.660198"
   x2="537.17682"
   y2="112.9126"
   gradientTransform="translate(146.02023,-9)" /><linearGradient
   inkscape:collect="always"
   xlink:href="#SVGID_2_"
   id="linearGradient10592"
   gradientUnits="userSpaceOnUse"
   x1="303.49899"
   y1="123.9863"
   x2="303.49899"
   y2="179.23489" /><linearGradient
   inkscape:collect="always"
   xlink:href="#SVGID_3_"
   id="linearGradient10594"
   gradientUnits="userSpaceOnUse"
   x1="537.17682"
   y1="57.660198"
   x2="537.17682"
   y2="112.9126"
   gradientTransform="translate(146.02023,493)" /><linearGradient
   inkscape:collect="always"
   xlink:href="#SVGID_2_"
   id="linearGradient10905"
   gradientUnits="userSpaceOnUse"
   x1="303.49899"
   y1="123.9863"
   x2="303.49899"
   y2="179.23489" />














<linearGradient
   id="linearGradient5025"
   gradientUnits="userSpaceOnUse"
   x1="537.17682"
   y1="57.660198"
   x2="537.17682"
   y2="112.9126"><stop
     offset="0.0982"
     style="stop-color:#C4C4C4"
     id="stop5027" /><stop
     offset="0.5326"
     style="stop-color:#686868"
     id="stop5029" /><stop
     offset="1"
     style="stop-color:#000000"
     id="stop5031" /></linearGradient>
<linearGradient
   y2="112.9126"
   x2="537.17682"
   y1="57.660198"
   x1="537.17682"
   gradientUnits="userSpaceOnUse"
   id="SVGID_3_"><stop
     id="stop4694"
     style="stop-color:#C4C4C4"
     offset="0.0982" /><stop
     id="stop4696"
     style="stop-color:#686868"
     offset="0.5326" /><stop
     id="stop4698"
     style="stop-color:#000000"
     offset="1" /></linearGradient><linearGradient
   id="linearGradient10560"
   gradientUnits="userSpaceOnUse"
   x1="537.17682"
   y1="57.660198"
   x2="537.17682"
   y2="112.9126"><stop
     offset="0.0982"
     style="stop-color:#C4C4C4"
     id="stop10562" /><stop
     offset="0.5326"
     style="stop-color:#686868"
     id="stop10564" /><stop
     offset="1"
     style="stop-color:#000000"
     id="stop10566" /></linearGradient></defs><sodipodi:namedview
   pagecolor="#ffffff"
   bordercolor="#666666"
   borderopacity="1"
   objecttolerance="10"
   gridtolerance="10"
   guidetolerance="10"
   inkscape:pageopacity="0"
   inkscape:pageshadow="2"
   inkscape:window-width="1920"
   inkscape:window-height="1027"
   id="namedview4774"
   showgrid="false"
   showguides="true"
   fit-margin-top="0"
   fit-margin-left="0"
   fit-margin-right="0"
   fit-margin-bottom="0"
   inkscape:zoom="0.41691141"
   inkscape:cx="249.45347"
   inkscape:cy="663.21044"
   inkscape:window-x="0"
   inkscape:window-y="25"
   inkscape:window-maximized="1"
   inkscape:current-layer="g10741"
   inkscape:pagecheckerboard="0" /><text
   xml:space="preserve"
   style="font-style:normal;font-variant:normal;font-weight:normal;font-stretch:normal;line-height:0%;font-family:monospace;-inkscape-font-specification:Monospace;text-align:start;letter-spacing:0px;word-spacing:0px;writing-mode:lr-tb;text-anchor:start;fill:#000000;fill-opacity:1;stroke:none;stroke-width:1px;stroke-linecap:butt;stroke-linejoin:miter;stroke-opacity:1"
   x="720.69189"
   y="35.840919"
   id="text4930"><tspan
     sodipodi:role="line"
     id="tspan4932"
     x="720.69189"
     y="35.840919"
     style="font-size:12px;line-height:1.25;font-family:monospace"> </tspan></text>
<g
   id="g10741"
   transform="translate(4.5000001e-7,-1)"><rect
     style="fill:#ffffff;stroke:#000000;stroke-miterlimit:10"
     id="rect4596"
     height="244"
     width="603.78497"
     stroke-miterlimit="10"
     y="3"
     x="153.02023" /><path
     stroke-miterlimit="10"
     d="m 744.02023,54 c 0,-8.284 -6.716,-15 -15,-15 h -385 c -8.284,0 -15,6.716 -15,15 v 167 c 0,8.284 6.716,15 15,15 h 385 c 8.284,0 15,-6.716 15,-15 z"
     id="path4656"
     inkscape:connector-curvature="0"
     style="fill:#b5b5b5;stroke:#ffffff;stroke-miterlimit:10" /><rect
     x="343.02023"
     y="50"
     width="425"
     height="70.268997"
     id="rect4658"
     style="fill:none" /><text
     id="text4660"
     style="line-height:0%"
     x="343.02023"
     y="62.419899"><tspan
       x="343.02023"
       y="62.419899"
       font-size="18"
       id="tspan4662"
       style="font-size:18px;font-family:Consolas">.git</tspan><tspan
       x="343.02023"
       y="84.019897"
       font-size="10.8"
       id="tspan4664"
       style="font-size:9.5px;font-family:Consolas">origin git@github.com:santisoler/sistema_solar.git</tspan></text><rect
     x="162.02023"
     y="10"
     width="195.58501"
     height="24.448999"
     id="rect4666"
     style="fill:none" /><rect
     x="170.02023"
     y="76"
     width="100"
     height="128"
     id="rect4723"
     style="fill:#dcdee0" /><rect
     x="170.02023"
     y="76"
     width="100"
     height="128"
     id="rect4725"
     style="fill:none;stroke:#85888d;stroke-width:2" /><line
     x1="183.02023"
     y1="96"
     x2="257.02023"
     y2="96"
     id="line4727"
     style="fill:none;stroke:#000000;stroke-width:2" /><line
     x1="183.02023"
     y1="102"
     x2="257.02023"
     y2="102"
     id="line4729"
     style="fill:none;stroke:#000000;stroke-width:2" /><line
     x1="183.02023"
     y1="108"
     x2="257.02023"
     y2="108"
     id="line4731"
     style="fill:none;stroke:#000000;stroke-width:2" /><line
     x1="183.02023"
     y1="120"
     x2="257.02023"
     y2="120"
     id="line4733"
     style="fill:none;stroke:#70bf41;stroke-width:2" /><rect
     style="fill:none"
     id="rect4742"
     height="14"
     width="52.743"
     y="137.069"
     x="310.02023" /><rect
     x="296.89124"
     y="127.76801"
     width="45.956001"
     height="30.604"
     id="rect4738"
     style="fill:#45beee" /><polygon
     points="193.467,181.695 234.02,151.163 193.467,121.571 "
     id="polygon4740"
     style="fill:#45beee"
     transform="translate(146.02023,-9)" /><text
     y="145.34959"
     x="310.02023"
     font-size="12"
     id="text4744"
     style="font-size:12px;line-height:0%;font-family:Consolas">git add</text><rect
     style="fill:none"
     id="rect4752"
     height="14"
     width="85.542"
     y="137.069"
     x="523.00024" /><rect
     x="527.27124"
     y="127.76801"
     width="45.956001"
     height="30.604"
     id="rect4748"
     style="fill:#45beee" /><polygon
     points="423.847,181.695 464.399,151.163 423.847,121.571 "
     id="polygon4750"
     style="fill:#45beee"
     transform="translate(146.02023,-9)" /><text
     y="145.34959"
     x="532.78394"
     font-size="12"
     id="text4754"
     style="font-size:12px;line-height:0%;font-family:Consolas">git commit</text><rect
     style="fill:none"
     id="rect4766"
     height="17"
     width="147"
     y="197"
     x="375.02023" /><g
     id="g4671"
     transform="translate(146.02023,-9)"><linearGradient
       y2="179.23489"
       x2="303.49899"
       y1="123.9863"
       x1="303.49899"
       gradientUnits="userSpaceOnUse"
       id="SVGID_2_"><stop
         id="stop4674"
         style="stop-color:#C4C4C4"
         offset="0.0982" /><stop
         id="stop4676"
         style="stop-color:#686868"
         offset="0.5326" /><stop
         id="stop4678"
         style="stop-color:#000000"
         offset="1" /></linearGradient><path
       id="path4680"
       d="m 253.453,178.205 c 0,-9.264 22.404,-16.777 50.047,-16.777 27.643,0 50.045,7.514 50.045,16.777 v 1.029 c 0,0 0,-2.115 0,-3.117 0,-1.007 0,-35.745 0,-35.745 v 0.394 c 0,-9.27 -22.402,-16.78 -50.045,-16.78 -27.643,0 -50.047,7.51 -50.047,16.78 v -0.394 c 0,0 0,34.519 0,35.733 0,1.205 0,3.129 0,3.129 z"
       stroke-miterlimit="10"
       inkscape:connector-curvature="0"
       style="fill:url(#linearGradient10905);stroke:#231f20;stroke-miterlimit:10" /><g
       id="g4682"><path
         id="path4684"
         d="m 353.545,140.373 c 0,0 0,34.738 0,35.745 0,1.002 0.355,3.117 0.355,3.117 0,9.27 -22.758,16.779 -50.4,16.779 -27.642,0 -50.4,-7.51 -50.4,-16.779 0,0 0.354,-1.924 0.354,-3.129 0,-1.214 0,-35.733 0,-35.733 0,9.274 22.404,16.785 50.047,16.785 27.643,0 50.044,-7.511 50.044,-16.785 z"
         stroke-miterlimit="10"
         inkscape:connector-curvature="0"
         style="fill:#ffffff;stroke:#231f20;stroke-miterlimit:10" /></g></g><g
     id="g4686"
     transform="translate(146.02023,-9)"><polygon
       id="polygon4688"
       points="328.542,149.459 341.719,134.965 282.411,134.965 269.235,149.459 "
       stroke-miterlimit="10"
       style="fill:#ffffff;stroke:#000000;stroke-miterlimit:10" /><line
       id="line4690"
       y2="140.894"
       x2="331.16501"
       y1="140.894"
       x1="282.41101"
       style="fill:none;stroke:#70bf41;stroke-width:2" /></g><text
     y="205.6279"
     x="415.49683"
     font-size="12"
     id="text4768"
     style="font-size:12px;line-height:0%;font-family:Helvetica">staging area</text><rect
     style="fill:none"
     id="rect4770"
     height="17"
     width="147"
     y="210"
     x="610.80524" /><path
     id="path4700"
     d="m 633.15023,102.882 c 0,-9.268 22.407,-16.781 50.047,-16.781 27.641,0 50.047,7.513 50.047,16.781 v 1.03 c 0,0 0,-2.118 0,-3.121 0,-1.003 0,-35.739 0,-35.739 v 0.388 c 0,-9.268 -22.406,-16.781 -50.047,-16.781 -27.64,0 -50.047,7.513 -50.047,16.781 v -0.388 c 0,0 0,34.519 0,35.728 0,1.209 0,3.132 0,3.132 z"
     stroke-miterlimit="10"
     inkscape:connector-curvature="0"
     style="fill:url(#linearGradient5457);stroke:#231f20;stroke-miterlimit:10" /><g
     id="g4702"
     transform="translate(146.02023,-9)"><path
       id="path4704"
       d="m 587.021,151.283 c 0,0 0,34.738 0,35.74 0,1.002 0.354,3.121 0.354,3.121 0,9.268 -22.76,16.779 -50.4,16.779 -27.64,0 -50.399,-7.512 -50.399,-16.779 0,0 0.353,-1.924 0.353,-3.133 0,-1.209 0,-35.729 0,-35.729 0,9.268 22.407,16.781 50.047,16.781 27.638,0.001 50.045,-7.512 50.045,-16.78 z"
       stroke-miterlimit="10"
       inkscape:connector-curvature="0"
       style="fill:#ffffff;stroke:#231f20;stroke-miterlimit:10" /></g><g
     id="g4706"
     transform="translate(146.02023,-9)"><path
       id="path4708"
       d="m 587.021,112.601 c 0,0 0,34.736 0,35.739 0,1.002 0.354,3.121 0.354,3.121 0,9.268 -22.76,16.779 -50.4,16.779 -27.64,0 -50.399,-7.512 -50.399,-16.779 0,0 0.353,-1.923 0.353,-3.132 0,-1.209 0,-35.728 0,-35.728 0,9.268 22.407,16.78 50.047,16.78 27.638,0 50.045,-7.512 50.045,-16.78 z"
       stroke-miterlimit="10"
       inkscape:connector-curvature="0"
       style="fill:#ffffff;stroke:#231f20;stroke-miterlimit:10" /></g><g
     id="g4710"
     transform="translate(146.02023,-9)"><path
       id="path4712"
       d="m 587.021,73.628 c 0,0 0,34.737 0,35.739 0,1.002 0.354,3.12 0.354,3.12 0,9.269 -22.76,16.781 -50.4,16.781 -27.64,0 -50.399,-7.513 -50.399,-16.781 0,0 0.353,-1.922 0.353,-3.131 0,-1.209 0,-35.728 0,-35.728 0,9.268 22.407,16.78 50.047,16.78 27.638,0.001 50.045,-7.512 50.045,-16.78 z"
       stroke-miterlimit="10"
       inkscape:connector-curvature="0"
       style="fill:#ffffff;stroke:#231f20;stroke-miterlimit:10" /></g><g
     id="g4714"
     transform="translate(146.02023,-9)"><polygon
       id="polygon4716"
       points="560.039,80.875 573.216,66.381 513.908,66.381 500.732,80.875 "
       stroke-miterlimit="10"
       style="fill:#ffffff;stroke:#000000;stroke-miterlimit:10" /><line
       id="line4718"
       y2="72.310997"
       x2="562.66199"
       y1="72.310997"
       x1="513.90802"
       style="fill:none;stroke:#70bf41;stroke-width:2" /></g><text
     y="218.6279"
     x="657.96161"
     font-size="12"
     id="text4772"
     style="font-size:12px;line-height:0%;font-family:Helvetica">repository</text><rect
     x="610.80524"
     y="210"
     width="147"
     height="17"
     id="rect4977"
     style="fill:none" /><rect
     x="2.479769"
     y="253"
     stroke-miterlimit="10"
     width="603.78497"
     height="244"
     id="rect4811"
     style="fill:#ffffff;stroke:#000000;stroke-miterlimit:10" /><path
     id="path4817"
     d="m 593.47977,304 c 0,-8.284 -6.716,-15 -15,-15 h -385 c -8.284,0 -15,6.716 -15,15 v 167 c 0,8.284 6.716,15 15,15 h 385 c 8.284,0 15,-6.716 15,-15 z"
     stroke-miterlimit="10"
     inkscape:connector-curvature="0"
     style="fill:#b5b5b5;stroke:#ffffff;stroke-miterlimit:10" /><rect
     id="rect4819"
     height="70.268997"
     width="425"
     y="300"
     x="192.47977"
     style="fill:none" /><text
     id="text4821"
     x="192.47977"
     y="312.41989"
     style="line-height:0%"><tspan
       id="tspan4823"
       font-size="18"
       y="312.41989"
       x="192.47977"
       style="font-size:18px;font-family:Consolas">.git</tspan><tspan
       id="tspan4825"
       font-size="10.8"
       y="334.0199"
       x="192.47977"
       style="font-size:10.8px;font-family:Consolas" /></text><rect
     style="fill:none"
     x="11.479769"
     y="260"
     width="195.58501"
     height="24.448999"
     id="rect4827" /><path
     stroke-miterlimit="10"
     d="m 482.60977,352.882 c 0,-9.268 22.407,-16.781 50.047,-16.781 27.641,0 50.047,7.513 50.047,16.781 v 1.03 c 0,0 0,-2.118 0,-3.121 0,-1.003 0,-35.739 0,-35.739 v 0.388 c 0,-9.268 -22.406,-16.781 -50.047,-16.781 -27.64,0 -50.047,7.513 -50.047,16.781 v -0.388 c 0,0 0,34.519 0,35.728 0,1.209 0,3.132 0,3.132 z"
     id="path5033"
     style="fill:url(#linearGradient5073);stroke:#231f20;stroke-miterlimit:10"
     inkscape:connector-curvature="0" /><g
     id="g5035"
     transform="translate(-4.5202309,241)"><path
       stroke-miterlimit="10"
       d="m 587.021,151.283 c 0,0 0,34.738 0,35.74 0,1.002 0.354,3.121 0.354,3.121 0,9.268 -22.76,16.779 -50.4,16.779 -27.64,0 -50.399,-7.512 -50.399,-16.779 0,0 0.353,-1.924 0.353,-3.133 0,-1.209 0,-35.729 0,-35.729 0,9.268 22.407,16.781 50.047,16.781 27.638,0.001 50.045,-7.512 50.045,-16.78 z"
       id="path5037"
       inkscape:connector-curvature="0"
       style="fill:#ffffff;stroke:#231f20;stroke-miterlimit:10" /></g><g
     id="g5039"
     transform="translate(-4.5202309,241)"><path
       stroke-miterlimit="10"
       d="m 587.021,112.601 c 0,0 0,34.736 0,35.739 0,1.002 0.354,3.121 0.354,3.121 0,9.268 -22.76,16.779 -50.4,16.779 -27.64,0 -50.399,-7.512 -50.399,-16.779 0,0 0.353,-1.923 0.353,-3.132 0,-1.209 0,-35.728 0,-35.728 0,9.268 22.407,16.78 50.047,16.78 27.638,0 50.045,-7.512 50.045,-16.78 z"
       id="path5041"
       inkscape:connector-curvature="0"
       style="fill:#ffffff;stroke:#231f20;stroke-miterlimit:10" /></g><g
     id="g5043"
     transform="translate(-4.5202309,241)"><path
       stroke-miterlimit="10"
       d="m 587.021,73.628 c 0,0 0,34.737 0,35.739 0,1.002 0.354,3.12 0.354,3.12 0,9.269 -22.76,16.781 -50.4,16.781 -27.64,0 -50.399,-7.513 -50.399,-16.781 0,0 0.353,-1.922 0.353,-3.131 0,-1.209 0,-35.728 0,-35.728 0,9.268 22.407,16.78 50.047,16.78 27.638,0.001 50.045,-7.512 50.045,-16.78 z"
       id="path5045"
       inkscape:connector-curvature="0"
       style="fill:#ffffff;stroke:#231f20;stroke-miterlimit:10" /></g><g
     id="g5047"
     transform="translate(-4.5202309,241)"><polygon
       stroke-miterlimit="10"
       points="560.039,80.875 573.216,66.381 513.908,66.381 500.732,80.875 "
       id="polygon5049"
       style="fill:#ffffff;stroke:#000000;stroke-miterlimit:10" /><line
       x1="513.90802"
       y1="72.310997"
       x2="562.66199"
       y2="72.310997"
       id="line5051"
       style="fill:none;stroke:#70bf41;stroke-width:2" /></g><text
     style="font-size:12px;line-height:0%;font-family:Helvetica"
     id="text5053"
     font-size="12"
     x="507.42117"
     y="468.6279">repository</text><rect
     style="fill:none"
     id="rect4762"
     height="14.000498"
     width="165.5479"
     transform="rotate(11.343641)"
     y="264.88895"
     x="194.51648" /><rect
     style="fill:#45beee"
     id="rect5294"
     height="30.604004"
     width="122.71094"
     y="-32.583775"
     x="537.66107"
     transform="rotate(90)" /><rect
     x="1.9797691"
     y="629.76801"
     width="99.924324"
     height="30.604004"
     id="rect5124"
     style="fill:#45beee" /><polygon
     transform="translate(-325.30292,493)"
     points="423.847,181.695 464.399,151.163 423.847,121.571 "
     id="polygon5126"
     style="fill:#45beee" /><text
     style="font-size:12px;line-height:0%;font-family:Consolas"
     id="text5128"
     font-size="12"
     x="39.460777"
     y="647.34961">git clone</text><rect
     x="153.02023"
     y="505"
     stroke-miterlimit="10"
     width="603.78497"
     height="244"
     id="rect10464"
     style="fill:#ffffff;stroke:#000000;stroke-miterlimit:10" /><path
     style="fill:#b5b5b5;stroke:#ffffff;stroke-miterlimit:10"
     inkscape:connector-curvature="0"
     id="path10470"
     d="m 744.02023,556 c 0,-8.284 -6.716,-15 -15,-15 h -385 c -8.284,0 -15,6.716 -15,15 v 167 c 0,8.284 6.716,15 15,15 h 385 c 8.284,0 15,-6.716 15,-15 z"
     stroke-miterlimit="10" /><rect
     style="fill:none"
     id="rect10472"
     height="70.268997"
     width="425"
     y="552"
     x="343.02023" /><rect
     style="fill:none"
     id="rect10480"
     height="24.448999"
     width="195.58501"
     y="512"
     x="162.02023" /><rect
     style="fill:#dcdee0"
     id="rect10488"
     height="128"
     width="100"
     y="578"
     x="170.02023" /><rect
     style="fill:none;stroke:#85888d;stroke-width:2"
     id="rect10490"
     height="128"
     width="100"
     y="578"
     x="170.02023" /><line
     style="fill:none;stroke:#000000;stroke-width:2"
     id="line10492"
     y2="598"
     x2="257.02023"
     y1="598"
     x1="183.02023" /><line
     style="fill:none;stroke:#000000;stroke-width:2"
     id="line10494"
     y2="604"
     x2="257.02023"
     y1="604"
     x1="183.02023" /><line
     style="fill:none;stroke:#000000;stroke-width:2"
     id="line10496"
     y2="610"
     x2="257.02023"
     y1="610"
     x1="183.02023" /><line
     style="fill:none;stroke:#70bf41;stroke-width:2"
     id="line10498"
     y2="622"
     x2="257.02023"
     y1="622"
     x1="183.02023" /><rect
     x="310.02023"
     y="639.06897"
     width="52.743"
     height="14"
     id="rect10500"
     style="fill:none" /><rect
     style="fill:#45beee"
     id="rect10506"
     height="30.604"
     width="45.956001"
     y="629.76801"
     x="296.89124" /><polygon
     style="fill:#45beee"
     id="polygon10508"
     points="193.467,181.695 234.02,151.163 193.467,121.571 "
     transform="translate(146.02023,493)" /><text
     style="font-size:12px;line-height:0%;font-family:Consolas"
     id="text10510"
     font-size="12"
     x="310.02023"
     y="647.34961">git add</text><rect
     x="523.00024"
     y="639.06897"
     width="85.542"
     height="14"
     id="rect10512"
     style="fill:none" /><rect
     style="fill:#45beee"
     id="rect10518"
     height="30.604"
     width="45.956001"
     y="629.76801"
     x="527.27124" /><polygon
     style="fill:#45beee"
     id="polygon10520"
     points="423.847,181.695 464.399,151.163 423.847,121.571 "
     transform="translate(146.02023,493)" /><text
     style="font-size:12px;line-height:0%;font-family:Consolas"
     id="text10522"
     font-size="12"
     x="532.78394"
     y="647.34961">git commit</text><rect
     x="375.02023"
     y="699"
     width="147"
     height="17"
     id="rect10524"
     style="fill:none" /><g
     id="g10530"
     transform="translate(146.02023,493)"><linearGradient
       id="linearGradient10532"
       gradientUnits="userSpaceOnUse"
       x1="303.49899"
       y1="123.9863"
       x2="303.49899"
       y2="179.23489"><stop
         offset="0.0982"
         style="stop-color:#C4C4C4"
         id="stop10534" /><stop
         offset="0.5326"
         style="stop-color:#686868"
         id="stop10536" /><stop
         offset="1"
         style="stop-color:#000000"
         id="stop10538" /></linearGradient><path
       style="fill:url(#linearGradient10592);stroke:#231f20;stroke-miterlimit:10"
       inkscape:connector-curvature="0"
       stroke-miterlimit="10"
       d="m 253.453,178.205 c 0,-9.264 22.404,-16.777 50.047,-16.777 27.643,0 50.045,7.514 50.045,16.777 v 1.029 c 0,0 0,-2.115 0,-3.117 0,-1.007 0,-35.745 0,-35.745 v 0.394 c 0,-9.27 -22.402,-16.78 -50.045,-16.78 -27.643,0 -50.047,7.51 -50.047,16.78 v -0.394 c 0,0 0,34.519 0,35.733 0,1.205 0,3.129 0,3.129 z"
       id="path10540" /><g
       id="g10542"><path
         style="fill:#ffffff;stroke:#231f20;stroke-miterlimit:10"
         inkscape:connector-curvature="0"
         stroke-miterlimit="10"
         d="m 353.545,140.373 c 0,0 0,34.738 0,35.745 0,1.002 0.355,3.117 0.355,3.117 0,9.27 -22.758,16.779 -50.4,16.779 -27.642,0 -50.4,-7.51 -50.4,-16.779 0,0 0.354,-1.924 0.354,-3.129 0,-1.214 0,-35.733 0,-35.733 0,9.274 22.404,16.785 50.047,16.785 27.643,0 50.044,-7.511 50.044,-16.785 z"
         id="path10544" /></g></g><g
     id="g10546"
     transform="translate(146.02023,493)"><polygon
       style="fill:#ffffff;stroke:#000000;stroke-miterlimit:10"
       stroke-miterlimit="10"
       points="282.411,134.965 269.235,149.459 328.542,149.459 341.719,134.965 "
       id="polygon10548" /><line
       style="fill:none;stroke:#70bf41;stroke-width:2"
       x1="282.41101"
       y1="140.894"
       x2="331.16501"
       y2="140.894"
       id="line10550" /></g><text
     style="font-size:12px;line-height:0%;font-family:Helvetica"
     id="text10552"
     font-size="12"
     x="415.49683"
     y="707.62793">staging area</text><rect
     x="610.80524"
     y="712"
     width="147"
     height="17"
     id="rect10554"
     style="fill:none" /><path
     style="fill:url(#linearGradient10594);stroke:#231f20;stroke-miterlimit:10"
     inkscape:connector-curvature="0"
     stroke-miterlimit="10"
     d="m 633.15023,604.882 c 0,-9.268 22.407,-16.781 50.047,-16.781 27.641,0 50.047,7.513 50.047,16.781 v 1.03 c 0,0 0,-2.118 0,-3.121 0,-1.003 0,-35.739 0,-35.739 v 0.388 c 0,-9.268 -22.406,-16.781 -50.047,-16.781 -27.64,0 -50.047,7.513 -50.047,16.781 v -0.388 c 0,0 0,34.519 0,35.728 0,1.209 0,3.132 0,3.132 z"
     id="path10568" /><g
     id="g10570"
     transform="translate(146.02023,493)"><path
       style="fill:#ffffff;stroke:#231f20;stroke-miterlimit:10"
       inkscape:connector-curvature="0"
       stroke-miterlimit="10"
       d="m 587.021,151.283 c 0,0 0,34.738 0,35.74 0,1.002 0.354,3.121 0.354,3.121 0,9.268 -22.76,16.779 -50.4,16.779 -27.64,0 -50.399,-7.512 -50.399,-16.779 0,0 0.353,-1.924 0.353,-3.133 0,-1.209 0,-35.729 0,-35.729 0,9.268 22.407,16.781 50.047,16.781 27.638,0.001 50.045,-7.512 50.045,-16.78 z"
       id="path10572" /></g><g
     id="g10574"
     transform="translate(146.02023,493)"><path
       style="fill:#ffffff;stroke:#231f20;stroke-miterlimit:10"
       inkscape:connector-curvature="0"
       stroke-miterlimit="10"
       d="m 587.021,112.601 c 0,0 0,34.736 0,35.739 0,1.002 0.354,3.121 0.354,3.121 0,9.268 -22.76,16.779 -50.4,16.779 -27.64,0 -50.399,-7.512 -50.399,-16.779 0,0 0.353,-1.923 0.353,-3.132 0,-1.209 0,-35.728 0,-35.728 0,9.268 22.407,16.78 50.047,16.78 27.638,0 50.045,-7.512 50.045,-16.78 z"
       id="path10576" /></g><g
     id="g10578"
     transform="translate(146.02023,493)"><path
       style="fill:#ffffff;stroke:#231f20;stroke-miterlimit:10"
       inkscape:connector-curvature="0"
       stroke-miterlimit="10"
       d="m 587.021,73.628 c 0,0 0,34.737 0,35.739 0,1.002 0.354,3.12 0.354,3.12 0,9.269 -22.76,16.781 -50.4,16.781 -27.64,0 -50.399,-7.513 -50.399,-16.781 0,0 0.353,-1.922 0.353,-3.131 0,-1.209 0,-35.728 0,-35.728 0,9.268 22.407,16.78 50.047,16.78 27.638,0.001 50.045,-7.512 50.045,-16.78 z"
       id="path10580" /></g><g
     id="g10582"
     transform="translate(146.02023,493)"><polygon
       style="fill:#ffffff;stroke:#000000;stroke-miterlimit:10"
       stroke-miterlimit="10"
       points="513.908,66.381 500.732,80.875 560.039,80.875 573.216,66.381 "
       id="polygon10584" /><line
       style="fill:none;stroke:#70bf41;stroke-width:2"
       x1="513.90802"
       y1="72.310997"
       x2="562.66199"
       y2="72.310997"
       id="line10586" /></g><text
     style="font-size:12px;line-height:0%;font-family:Helvetica"
     id="text10588"
     font-size="12"
     x="657.96161"
     y="720.62793">repository</text><rect
     style="fill:none"
     id="rect10590"
     height="17"
     width="147"
     y="712"
     x="610.80524" /><text
     id="text19939"
     style="line-height:0%"
     x="343.09174"
     y="564.41992"><tspan
       x="343.09174"
       y="564.41992"
       font-size="18"
       id="tspan19935"
       style="font-size:18px;font-family:Consolas">.git</tspan><tspan
       x="343.09174"
       y="586.0199"
       font-size="10.8"
       id="tspan19937"
       style="font-size:9.5px;font-family:Consolas">origin git@github.com:santisoler/sistema_solar.git</tspan></text></g><g
   id="g1008"
   transform="translate(-69.8625,-5.637536)"><text
     font-size="13.5"
     id="text4668-3"
     style="font-size:13.5px;line-height:0%;font-family:Helvetica"
     x="231.88274"
     y="24.344536">~/sistema_solar</text><path
     d="m 240.49535,37.875232 h 22.80038 v 15.200251 h 3.80006 V 36.925217 c 0,-1.566334 -1.28371,-2.850045 -2.85004,-2.850045 h -24.70042 c -1.56633,0 -2.85004,1.283711 -2.85004,2.850045 v 16.150266 h 3.80006 z m 29.45049,17.04685 h -36.1006 c -0.51953,0 -0.95001,0.43047 -0.95001,0.950014 v 0.950016 c 0,2.092996 1.70706,3.80006 3.80006,3.80006 h 30.4005 c 2.09301,0 3.80006,-1.707064 3.80006,-3.80006 v -0.950016 c 0,-0.469074 -0.4275,-0.950014 -0.95001,-0.950014 z"
     id="path2"
     style="stroke-width:0.059376" /><text
     font-size="13.5"
     id="text2156"
     style="font-size:13.5px;line-height:0%;font-family:Helvetica;fill:#666666"
     x="272.83524"
     y="52.114174">santisoler</text><text
     font-size="13.5"
     id="text2278"
     style="font-size:13.5px;line-height:0%;font-family:Helvetica;fill:#666666"
     x="272.83524"
     y="551.47491">aguspesce</text><g
     id="g5101"
     transform="translate(288.69048,-140.77705)"><text
       y="415.12158"
       x="-207.34821"
       id="text4829-6"
       font-size="13.5"
       style="font-size:13.5px;line-height:0%;font-family:Helvetica">https://github.com/santisoler/sistema_solar.git</text><path
       d="m -187.40299,423.74745 c -10.49215,0 -19.00021,8.50617 -19.00021,18.9999 0,8.3948 5.44415,15.51689 12.99351,18.02931 0.94958,0.17586 1.29819,-0.41223 1.29819,-0.91409 0,-0.45306 -0.0177,-1.94978 -0.0258,-3.53745 -5.28588,1.14938 -6.40126,-2.24176 -6.40126,-2.24176 -0.86431,-2.19617 -2.10964,-2.78012 -2.10964,-2.78012 -1.72389,-1.17927 0.12986,-1.15502 0.12986,-1.15502 1.90795,0.13371 2.91258,1.95797 2.91258,1.95797 1.69464,2.90471 4.44487,2.06496 5.5291,1.57948 0.17052,-1.22772 0.66292,-2.06654 1.20631,-2.54069 -4.22021,-0.48045 -8.65656,-2.10964 -8.65656,-9.38999 0,-2.07439 0.74222,-3.76932 1.95766,-5.09993 -0.19728,-0.47885 -0.84763,-2.41105 0.18405,-5.02819 0,0 1.59553,-0.51064 5.22642,1.94759 1.5156,-0.42098 3.141,-0.63209 4.75572,-0.63935 1.6147,0.007 3.24137,0.21837 4.75982,0.63935 3.6265,-2.45823 5.21981,-1.94759 5.21981,-1.94759 1.0342,2.61714 0.38352,4.54934 0.18625,5.02819 1.21828,1.33061 1.95547,3.02554 1.95547,5.09993 0,7.29765 -4.44485,8.9045 -8.67577,9.37487 0.68151,0.58964 1.28874,1.74592 1.28874,3.51857 0,2.54194 -0.0221,4.58803 -0.0221,5.21414 0,0.50564 0.34203,1.09806 1.30512,0.91151 7.5453,-2.51519 12.98252,-9.63477 12.98252,-18.02673 -1e-5,-10.49373 -8.50684,-18.9999 -18.99993,-18.9999"
       style="fill:#191919;fill-opacity:1;fill-rule:evenodd;stroke:none;stroke-width:0.0314635"
       id="path108" /></g></g><g
   id="g1174"
   transform="translate(-69.8625,496.32196)"><text
     font-size="13.5"
     id="text1170"
     style="font-size:13.5px;line-height:0%;font-family:Helvetica"
     x="231.88274"
     y="24.344536">~/sistema_solar</text><path
     d="m 240.49535,37.875232 h 22.80038 v 15.200251 h 3.80006 V 36.925217 c 0,-1.566334 -1.28371,-2.850045 -2.85004,-2.850045 h -24.70042 c -1.56633,0 -2.85004,1.283711 -2.85004,2.850045 v 16.150266 h 3.80006 z m 29.45049,17.04685 h -36.1006 c -0.51953,0 -0.95001,0.43047 -0.95001,0.950014 v 0.950016 c 0,2.092996 1.70706,3.80006 3.80006,3.80006 h 30.4005 c 2.09301,0 3.80006,-1.707064 3.80006,-3.80006 v -0.950016 c 0,-0.469074 -0.4275,-0.950014 -0.95001,-0.950014 z"
     id="path1172"
     style="fill:#910ed3;fill-opacity:1;stroke-width:0.059376" /></g></svg>
